<?xml version="1.0" encoding="utf-8"?><svg xmlns="http://www.w3.org/2000/svg" xmlns:xlink="http://www.w3.org/1999/xlink"><symbol viewBox="0 0 472.337 472.336" id="cart" xmlns="http://www.w3.org/2000/svg"><path d="M406.113 126.627c0-5.554-4.499-10.05-10.053-10.05h-76.377V91.715C319.684 41.143 278.543 0 227.969 0c-50.573 0-91.713 41.143-91.713 91.715v24.862H70.45c-5.549 0-10.05 4.497-10.05 10.05L3.914 462.284a10.05 10.05 0 0 0 10.055 10.053h444.397c5.554 0 10.057-4.499 10.057-10.053l-62.31-335.657zM156.352 91.715c0-39.49 32.13-71.614 71.612-71.614 39.49 0 71.618 32.13 71.618 71.614v24.862h-143.23V91.715zm-9.95 122.91c-9.92 0-17.959-8.044-17.959-17.961 0-7.269 4.34-13.5 10.552-16.325v17.994h14.337v-18.237c6.476 2.709 11.031 9.104 11.031 16.568 0 9.922-8.044 17.961-17.961 17.961zm164.082 0c-9.922 0-17.959-8.044-17.959-17.961 0-7.269 4.341-13.495 10.548-16.325v17.994h14.338v-18.241c6.478 2.714 11.037 9.108 11.037 16.568 0 9.926-8.041 17.965-17.964 17.965z"/></symbol><symbol viewBox="0 0 554.748 554.748" id="cart-grid" xmlns="http://www.w3.org/2000/svg"><path d="M548.873 164.412c4.896 6.12 6.73 13.464 5.508 22.032l-23.256 133.417c-.816 6.938-3.979 12.648-9.486 17.136-5.508 4.488-11.729 6.732-18.666 6.732H163.925l-6.732 37.944H480.33c7.752 0 14.48 2.754 20.195 8.262 5.713 5.508 8.566 12.342 8.566 20.502s-2.854 14.994-8.566 20.502c-5.715 5.508-12.443 8.262-20.195 8.262H122.921c-8.568 0-15.912-3.468-22.032-10.401-5.712-6.938-7.956-14.895-6.732-23.868l15.3-83.232L86.201 87.914 20.105 67.106c-7.752-2.448-13.362-7.141-16.83-14.076-3.468-6.937-4.182-14.28-2.142-22.032 2.448-7.752 7.242-13.362 14.382-16.83s14.382-4.182 21.726-2.142l84.456 26.928c5.304 1.632 9.69 4.692 13.158 9.18 3.468 4.488 5.61 9.589 6.426 15.301l4.896 46.512 383.112 42.84c8.568 1.221 15.096 5.097 19.584 11.625zM166.374 455.113c12.24 0 22.644 4.284 31.212 12.854 8.568 8.565 12.852 18.972 12.852 31.212 0 12.237-4.284 22.746-12.852 31.518-8.568 8.772-18.972 13.158-31.212 13.158s-22.644-4.386-31.212-13.158c-8.568-8.771-12.852-19.278-12.852-31.518s4.284-22.646 12.852-31.212c8.567-8.57 18.971-12.854 31.212-12.854zm261.323 0c12.238 0 22.645 4.284 31.213 12.854 8.564 8.565 12.852 18.972 12.852 31.212 0 12.237-4.285 22.746-12.852 31.518-8.568 8.772-18.975 13.158-31.213 13.158-12.24 0-22.646-4.386-31.211-13.158-8.568-8.771-12.855-19.278-12.855-31.518s4.285-22.646 12.855-31.212c8.567-8.57 18.971-12.854 31.211-12.854z"/></symbol><symbol viewBox="0 0 31.183 31.183" id="clock" xmlns="http://www.w3.org/2000/svg"><path d="M15.591 2.359C8.046 2.359 1.93 8.476 1.93 16.02c0 3.743 1.507 7.132 3.945 9.6-.434.556-1.101 1.408-2.016 2.583a1.472 1.472 0 0 0 2.324 1.811s1.232-1.582 1.979-2.536c2.14 1.392 4.688 2.207 7.43 2.207s5.291-.815 7.432-2.207c.746.954 1.978 2.536 1.978 2.536a1.474 1.474 0 0 0 2.066.255 1.472 1.472 0 0 0 .257-2.066c-.915-1.175-1.582-2.028-2.016-2.584a13.613 13.613 0 0 0 3.943-9.599c0-7.544-6.116-13.661-13.661-13.661zM4.562 16.02c0-6.081 4.949-11.029 11.03-11.029 6.083 0 11.03 4.948 11.03 11.029 0 6.084-4.946 11.033-11.03 11.033-6.083 0-11.03-4.949-11.03-11.033z"/><path d="M16.492 14.167l.007-3.83a.878.878 0 1 0-1.754-.002l-.007 3.806a2.075 2.075 0 0 0-1.053 1.076l-6.351-.012a.878.878 0 0 0-.003 1.754l6.433.011a2.058 2.058 0 0 0 1.828 1.12 2.067 2.067 0 0 0 2.068-2.069 2.06 2.06 0 0 0-1.168-1.854zM1.583 2.154a5.354 5.354 0 0 0-.277 7.303l7.583-7.521a5.357 5.357 0 0 0-7.306.218zm28.02 0a5.358 5.358 0 0 0-7.307-.217l7.581 7.521a5.357 5.357 0 0 0-.274-7.304z"/></symbol><symbol viewBox="0 0 220.176 220.176" id="closed" xmlns="http://www.w3.org/2000/svg"><path d="M131.577 110.084l84.176-84.146c5.897-5.928 5.897-15.565 0-21.492-5.928-5.928-15.595-5.928-21.492 0l-84.176 84.146L25.938 4.446c-5.928-5.928-15.565-5.928-21.492 0s-5.928 15.565 0 21.492l84.146 84.146L4.446 194.26c-5.928 5.897-5.928 15.565 0 21.492 5.928 5.897 15.565 5.897 21.492 0l84.146-84.176 84.176 84.176c5.897 5.897 15.565 5.897 21.492 0 5.897-5.928 5.897-15.595 0-21.492l-84.175-84.176z"/></symbol><symbol viewBox="0 0 612.001 612" id="delivery" xmlns="http://www.w3.org/2000/svg"><path d="M604.131 440.17h-19.12V333.237c0-12.512-3.776-24.787-10.78-35.173l-47.92-70.975a62.99 62.99 0 0 0-52.169-27.698h-74.28c-8.734 0-15.737 7.082-15.737 15.738v225.043h-121.65c11.567 9.992 19.514 23.92 21.796 39.658H412.53c4.563-31.238 31.475-55.396 63.972-55.396 32.498 0 59.33 24.158 63.895 55.396h63.735c4.328 0 7.869-3.541 7.869-7.869V448.04c-.001-4.327-3.541-7.87-7.87-7.87zM525.76 312.227h-98.044a7.842 7.842 0 0 1-7.868-7.869v-54.372c0-4.328 3.541-7.869 7.868-7.869h59.724c2.597 0 4.957 1.259 6.452 3.305l38.32 54.451c3.619 5.194-.079 12.354-6.452 12.354zM476.502 440.17c-27.068 0-48.943 21.953-48.943 49.021 0 26.99 21.875 48.943 48.943 48.943 26.989 0 48.943-21.953 48.943-48.943 0-27.066-21.954-49.021-48.943-49.021zm0 73.495c-13.535 0-24.472-11.016-24.472-24.471 0-13.535 10.937-24.473 24.472-24.473 13.533 0 24.472 10.938 24.472 24.473 0 13.455-10.938 24.471-24.472 24.471zM68.434 440.17c-4.328 0-7.869 3.543-7.869 7.869v23.922c0 4.328 3.541 7.869 7.869 7.869h87.971c2.282-15.738 10.229-29.666 21.718-39.658H68.434v-.002zm151.864 0c-26.989 0-48.943 21.953-48.943 49.021 0 26.99 21.954 48.943 48.943 48.943 27.068 0 48.943-21.953 48.943-48.943.001-27.066-21.874-49.021-48.943-49.021zm0 73.495c-13.534 0-24.471-11.016-24.471-24.471 0-13.535 10.937-24.473 24.471-24.473s24.472 10.938 24.472 24.473c0 13.455-10.938 24.471-24.472 24.471zm117.716-363.06h-91.198c4.485 13.298 6.846 27.54 6.846 42.255 0 74.28-60.431 134.711-134.711 134.711-13.535 0-26.675-2.045-39.029-5.744v86.949c0 4.328 3.541 7.869 7.869 7.869h265.96c4.329 0 7.869-3.541 7.869-7.869V174.211c-.001-13.062-10.545-23.606-23.606-23.606zM118.969 73.866C53.264 73.866 0 127.129 0 192.834s53.264 118.969 118.969 118.969 118.97-53.264 118.97-118.969-53.265-118.968-118.97-118.968zm0 210.864c-50.752 0-91.896-41.143-91.896-91.896s41.144-91.896 91.896-91.896c50.753 0 91.896 41.144 91.896 91.896 0 50.753-41.143 91.896-91.896 91.896zm35.097-72.488c-1.014 0-2.052-.131-3.082-.407L112.641 201.5a11.808 11.808 0 0 1-8.729-11.396v-59.015c0-6.516 5.287-11.803 11.803-11.803 6.516 0 11.803 5.287 11.803 11.803v49.971l29.614 7.983c6.294 1.698 10.02 8.177 8.322 14.469-1.421 5.264-6.185 8.73-11.388 8.73z"/></symbol><symbol viewBox="0 0 185.344 185.344" id="down" xmlns="http://www.w3.org/2000/svg"><path d="M92.672 144.373a10.707 10.707 0 0 1-7.593-3.138L3.145 59.301c-4.194-4.199-4.194-10.992 0-15.18a10.72 10.72 0 0 1 15.18 0l74.347 74.341 74.347-74.341a10.72 10.72 0 0 1 15.18 0c4.194 4.194 4.194 10.981 0 15.18l-81.939 81.934a10.694 10.694 0 0 1-7.588 3.138z"/></symbol><symbol viewBox="0 0 49.652 49.652" id="fcb" xmlns="http://www.w3.org/2000/svg"><path d="M24.826 0C11.137 0 0 11.137 0 24.826c0 13.688 11.137 24.826 24.826 24.826 13.688 0 24.826-11.138 24.826-24.826C49.652 11.137 38.516 0 24.826 0zM31 25.7h-4.039v14.396h-5.985V25.7h-2.845v-5.088h2.845v-3.291c0-2.357 1.12-6.04 6.04-6.04l4.435.017v4.939h-3.219c-.524 0-1.269.262-1.269 1.386v2.99h4.56L31 25.7z"/></symbol><symbol viewBox="0 0 492.719 492.719" id="heart" xmlns="http://www.w3.org/2000/svg"><path d="M492.719 166.008c0-73.486-59.573-133.056-133.059-133.056-47.985 0-89.891 25.484-113.302 63.569-23.408-38.085-65.332-63.569-113.316-63.569C59.556 32.952 0 92.522 0 166.008c0 40.009 17.729 75.803 45.671 100.178l188.545 188.553a17.17 17.17 0 0 0 24.284 0l188.545-188.553c27.943-24.375 45.674-60.169 45.674-100.178z"/></symbol><symbol viewBox="0 0 254.182 254.182" id="house" xmlns="http://www.w3.org/2000/svg"><path d="M211.655 137.102a7.5 7.5 0 0 0-7.5 7.5v77.064h-41.373v-77.064a7.5 7.5 0 0 0-7.5-7.5H98.903a7.5 7.5 0 0 0-7.5 7.5v77.064H50.026v-77.064a7.5 7.5 0 0 0-7.5-7.5 7.5 7.5 0 0 0-7.5 7.5v84.564a7.5 7.5 0 0 0 7.5 7.5h169.129a7.5 7.5 0 0 0 7.5-7.5v-84.564a7.5 7.5 0 0 0-7.5-7.5zm-105.252 84.564v-69.564h41.379v69.564h-41.379z"/><path d="M251.985 139.298L132.389 19.712a7.501 7.501 0 0 0-10.607 0L2.197 139.298a7.5 7.5 0 0 0 10.607 10.606L127.086 35.622l114.293 114.283a7.477 7.477 0 0 0 5.303 2.196 7.5 7.5 0 0 0 5.303-12.803z"/></symbol><symbol viewBox="0 0 49.652 49.652" id="inst" xmlns="http://www.w3.org/2000/svg"><path d="M24.825 29.796a4.978 4.978 0 0 0 4.972-4.97 4.954 4.954 0 0 0-.94-2.897 4.964 4.964 0 0 0-4.029-2.073c-1.659 0-3.126.82-4.031 2.072a4.947 4.947 0 0 0-.94 2.897 4.973 4.973 0 0 0 4.968 4.971zm10.853-11.05V13.96l-.623.002-4.164.013.016 4.787z"/><path d="M24.826 0C11.137 0 0 11.137 0 24.826c0 13.688 11.137 24.826 24.826 24.826 13.688 0 24.826-11.138 24.826-24.826C49.652 11.137 38.516 0 24.826 0zm14.119 21.929v11.56a5.463 5.463 0 0 1-5.457 5.458H16.164a5.462 5.462 0 0 1-5.457-5.458V16.165a5.462 5.462 0 0 1 5.457-5.457h17.323a5.463 5.463 0 0 1 5.458 5.457v5.764z"/><path d="M32.549 24.826c0 4.257-3.464 7.723-7.723 7.723s-7.722-3.466-7.722-7.723a7.67 7.67 0 0 1 .568-2.897h-4.215v11.56a2.706 2.706 0 0 0 2.706 2.704h17.323a2.707 2.707 0 0 0 2.706-2.704v-11.56h-4.217c.367.894.574 1.873.574 2.897z"/></symbol><symbol viewBox="0 0 32 32" id="magnifie" xmlns="http://www.w3.org/2000/svg"><path d="M27.414 24.586l-5.077-5.077A9.932 9.932 0 0 0 24 14c0-5.514-4.486-10-10-10S4 8.486 4 14s4.486 10 10 10a9.932 9.932 0 0 0 5.509-1.663l5.077 5.077a2 2 0 1 0 2.828-2.828zM7 14c0-3.86 3.14-7 7-7s7 3.14 7 7-3.14 7-7 7-7-3.14-7-7z"/><path d="M19 14a1 1 0 0 1-1 1h-3v3a1 1 0 0 1-2 0v-3h-3a1 1 0 0 1 0-2h3v-3a1 1 0 0 1 2 0v3h3a1 1 0 0 1 1 1z"/></symbol><symbol viewBox="0 0 421.94 421.939" id="mail" xmlns="http://www.w3.org/2000/svg"><path d="M219.866 163.814c-7.254 0-13.964 2.053-20.125 6.173-6.173 4.107-11.49 9.412-15.961 15.948-4.488 6.536-7.926 13.851-10.343 21.941-2.429 8.116-3.627 16.018-3.627 23.765 0 7.974 1.633 14.507 4.9 19.587 3.263 5.068 8.872 7.614 16.861 7.614 3.375 0 7.025-1.021 10.89-3.086 3.867-2.054 7.599-4.769 11.238-8.167 3.63-3.375 7.122-7.254 10.521-11.602a106.038 106.038 0 0 0 9.067-13.774l9.073-50.056c-3.164-2.669-6.425-4.723-9.8-6.173-3.393-1.452-7.626-2.17-12.694-2.17z"/><path d="M210.976 0C94.461 0 0 94.453 0 210.964 0 327.478 94.452 421.94 210.975 421.94c116.526 0 210.963-94.455 210.963-210.976C421.939 94.453 327.514 0 210.976 0zm134.931 264.283c-9.56 9.92-20.675 17.78-33.363 23.575-12.688 5.801-26.307 8.707-40.814 8.707-6.059 0-11.667-.655-16.867-1.987-5.206-1.34-9.565-3.567-13.055-6.72-3.507-3.146-6.112-7.254-7.812-12.334-1.693-5.08-2.173-11.361-1.435-18.849h-1.453a193.058 193.058 0 0 1-11.794 14.867 86.719 86.719 0 0 1-13.964 12.875c-5.065 3.759-10.637 6.719-16.669 8.887-6.062 2.174-12.703 3.261-19.96 3.261-5.798 0-11.361-1.273-16.693-3.808-5.309-2.54-9.905-6.106-13.775-10.694-3.867-4.588-6.953-10.16-9.235-16.693-2.317-6.527-3.461-13.774-3.461-21.761 0-14.994 2.429-29.559 7.256-43.703 4.84-14.147 11.431-26.662 19.768-37.539 8.344-10.884 18.029-19.633 29.03-26.298 11-6.642 22.665-9.968 34.993-9.968 8.47 0 15.604 1.273 21.398 3.807a64.569 64.569 0 0 1 15.967 9.979l11.234-11.616h25.395l-17.401 98.302c-1.934 11.361-1.994 19.588-.192 24.668 1.825 5.067 5.86 7.614 12.153 7.614 6.281 0 12.466-1.453 18.507-4.359 6.029-2.9 11.47-7.362 16.321-13.422 4.815-6.034 8.767-13.66 11.781-22.842 3.026-9.199 4.527-20.083 4.527-32.657 0-18.134-3.026-33.617-9.067-46.432-6.053-12.814-14.327-23.395-24.835-31.729-10.522-8.344-22.923-14.447-37.19-18.314-14.261-3.87-29.621-5.812-46.065-5.812-18.852 0-36.389 3.387-52.593 10.145-16.201 6.789-30.288 16.093-42.262 27.935-11.959 11.856-21.329 25.944-28.112 42.262-6.752 16.321-10.145 34.035-10.145 53.134 0 18.867 2.846 35.788 8.515 50.776 5.696 15.012 13.977 27.754 24.86 38.274 10.871 10.521 24.355 18.615 40.448 24.295 16.065 5.682 34.5 8.533 55.304 8.533 7.014 0 14.988-.847 23.947-2.534 8.936-1.693 17.042-4.233 24.296-7.626l11.24 34.828c-9.907 4.84-20.008 8.215-30.288 10.142-10.28 1.934-22.062 2.925-35.371 2.925-23.452 0-45.156-3.398-65.092-10.154-19.957-6.779-37.254-16.813-51.885-30.107-14.627-13.307-26.058-29.809-34.272-49.504-8.227-19.708-12.322-42.502-12.322-68.371 0-26.361 4.708-50.188 14.135-71.469 9.428-21.269 22.149-39.403 38.092-54.406 15.964-14.997 34.458-26.526 55.481-34.651 21.056-8.08 43.294-12.142 66.746-12.142 22.242 0 42.922 3.204 62.018 9.611 19.107 6.413 35.668 15.597 49.695 27.559 14.027 11.971 25.028 26.613 33.003 43.896 7.986 17.3 11.985 36.944 11.985 58.946 0 15.483-2.727 29.991-8.167 43.532-5.451 13.526-12.933 25.258-22.486 35.166z"/></symbol><symbol viewBox="0 0 612 612" id="minus" xmlns="http://www.w3.org/2000/svg"><path d="M554.625 248.625H57.375C25.685 248.625 0 274.31 0 306s25.685 57.375 57.375 57.375h497.25C586.315 363.375 612 337.69 612 306s-25.685-57.375-57.375-57.375z"/></symbol><symbol viewBox="0 0 185.343 185.343" id="next" xmlns="http://www.w3.org/2000/svg"><path d="M51.707 185.343a10.692 10.692 0 0 1-7.593-3.149 10.724 10.724 0 0 1 0-15.175l74.352-74.347L44.114 18.32c-4.194-4.194-4.194-10.987 0-15.175 4.194-4.194 10.987-4.194 15.18 0l81.934 81.934c4.194 4.194 4.194 10.987 0 15.175l-81.934 81.939a10.678 10.678 0 0 1-7.587 3.15z"/></symbol><symbol viewBox="0 0 387.255 387.255" id="pen" xmlns="http://www.w3.org/2000/svg"><path d="M8.327 378.927c11.104 11.104 29.171 11.104 40.275 0 5.524-5.524 8.297-12.772 8.325-20.029 10.175-5.899 23.193-13.184 36.93-20.175 55.588-28.287 70.353-25.155 71.854-24.706a14.727 14.727 0 0 0 17.746-8.242c8.302-19.129 47.852-67.287 78.272-85.71a14.666 14.666 0 0 0 2.893-2.312c6.005 1.6 12.681.062 17.383-4.637 6.313-6.313 6.931-16.171 1.897-23.199l99.503-77.636a10.002 10.002 0 0 0 .92-14.956L289.93 2.929a10 10 0 0 0-14.956.92l-77.635 99.504c-7.03-5.033-16.888-4.415-23.198 1.896-4.657 4.66-6.206 11.248-4.683 17.211a14.66 14.66 0 0 0-2.381 2.955c-19.767 32.666-67.458 70.512-85.596 78.379-6.851 2.975-10.393 10.6-8.247 17.75.451 1.504 3.584 16.266-24.704 71.854-6.989 13.736-14.274 26.754-20.176 36.933-7.256.026-14.502 2.799-20.027 8.321-11.102 11.103-11.103 29.172 0 40.275zm114.768-122.406c-2.331-5.384-1.31-11.884 3.083-16.273 5.744-5.743 15.088-5.746 20.833-.004 5.741 5.743 5.741 15.092-.001 20.832-4.396 4.395-10.895 5.413-16.278 3.084l-79.936 79.936s-.861-1.83-3.334-4.305c-2.475-2.471-4.305-3.332-4.305-3.332l79.938-79.938z"/></symbol><symbol viewBox="0 0 612 612" id="plus" xmlns="http://www.w3.org/2000/svg"><path d="M535.5 229.5h-153v-153C382.5 34.253 348.247 0 306 0s-76.5 34.253-76.5 76.5v153h-153C34.253 229.5 0 263.753 0 306s34.253 76.5 76.5 76.5h153v153c0 42.247 34.253 76.5 76.5 76.5s76.5-34.253 76.5-76.5v-153h153c42.247 0 76.5-34.253 76.5-76.5s-34.253-76.5-76.5-76.5z"/></symbol><symbol viewBox="0 0 240.823 240.823" id="prev" xmlns="http://www.w3.org/2000/svg"><path d="M57.633 129.007L165.93 237.268c4.752 4.74 12.451 4.74 17.215 0 4.752-4.74 4.752-12.439 0-17.179l-99.707-99.671 99.695-99.671c4.752-4.74 4.752-12.439 0-17.191-4.752-4.74-12.463-4.74-17.215 0L57.621 111.816c-4.679 4.691-4.679 12.511.012 17.191z"/></symbol><symbol viewBox="0 0 388.245 388.245" id="remove" xmlns="http://www.w3.org/2000/svg"><path d="M107.415 388.245h173.334c21.207 0 38.342-17.159 38.342-38.342V80.928H69.097v268.975c0 21.183 17.167 38.342 38.318 38.342zm146.583-258.602c0-7.178 5.796-13.03 13.006-13.03 7.178 0 13.006 5.853 13.006 13.03v208.311c0 7.21-5.828 13.038-13.006 13.038-7.21 0-13.006-5.828-13.006-13.038V129.643zm-72.507 0c0-7.178 5.804-13.03 13.006-13.03 7.178 0 13.006 5.853 13.006 13.03v208.311c0 7.21-5.828 13.038-13.006 13.038-7.202 0-13.006-5.828-13.006-13.038V129.643zm-72.466 0c0-7.178 5.796-13.03 12.973-13.03s13.038 5.853 13.038 13.03v208.311c0 7.21-5.861 13.038-13.038 13.038-7.178 0-12.973-5.828-12.973-13.038V129.643zM294.437 20.451h-52.779C240.39 8.966 230.75 0 218.955 0h-49.682c-11.86 0-21.476 8.966-22.736 20.451H93.792c-25.865 0-46.756 20.955-46.902 46.756h294.466c-.098-25.8-21.021-46.756-46.919-46.756z"/></symbol><symbol viewBox="0 0 512 512" id="store" xmlns="http://www.w3.org/2000/svg"><path d="M0 208c0 29.781 20.438 54.594 48 61.75V480H16c-8.813 0-16 7.156-16 16s7.188 16 16 16h480c8.875 0 16-7.156 16-16s-7.125-16-16-16h-32V269.75c27.562-7.156 48-31.969 48-61.75v-16H0v16zm320 64c35.375 0 64-28.656 64-64 0 29.781 20.438 54.594 48 61.75V480H192V272c35.375 0 64-28.656 64-64 0 35.344 28.688 64 64 64zm-144-2.25V480H80V269.75c27.563-7.156 48-31.969 48-61.75 0 29.781 20.438 54.594 48 61.75zM448 48H64L0 176h512L448 48zM135.188 83.563l-32 64c-1.438 2.813-4.25 4.438-7.188 4.438a7.744 7.744 0 0 1-3.563-.844c-3.938-1.969-5.563-6.781-3.563-10.719l32-64c2-3.938 6.781-5.531 10.719-3.594 3.97 1.969 5.532 6.781 3.595 10.719zm64 0l-32 64c-1.438 2.813-4.25 4.438-7.188 4.438a7.744 7.744 0 0 1-3.563-.844c-3.938-1.969-5.563-6.781-3.563-10.719l32-64c2-3.938 6.813-5.531 10.719-3.594 3.97 1.969 5.532 6.781 3.595 10.719zM264 144c0 4.438-3.562 8-8 8-4.406 0-8-3.563-8-8V80c0-4.438 3.594-8 8-8 4.438 0 8 3.563 8 8v64zm91.875 7c-1.25.688-2.562 1-3.875 1-2.812 0-5.562-1.5-7-4.156l-35-64c-2.125-3.875-.688-8.75 3.188-10.844 3.813-2.125 8.75-.75 10.875 3.156l35 64c2.062 3.875.687 8.75-3.188 10.844zm63.687.156c-1.124.594-2.312.844-3.562.844a7.909 7.909 0 0 1-7.125-4.438l-32-64c-2-3.938-.375-8.75 3.562-10.719 3.875-1.969 8.75-.375 10.75 3.594l32 64c1.938 3.938.375 8.751-3.625 10.719zM136 386.438v-36.875c-4.688-2.812-8-7.688-8-13.562 0-8.844 7.188-16 16-16 8.875 0 16 7.156 16 16 0 5.875-3.281 10.75-8 13.562v36.875c4.719 2.813 8 7.688 8 13.563 0 8.844-7.125 16-16 16-8.813 0-16-7.156-16-16 0-5.876 3.313-10.751 8-13.563zM64 16c0-8.844 7.188-16 16-16h352c8.875 0 16 7.156 16 16s-7.125 16-16 16H80c-8.812 0-16-7.156-16-16zm216.438 341.656l-11.312-11.313 45.25-45.25 11.312 11.313-45.25 45.25zm0 45.25l-11.312-11.313 90.5-90.5 11.312 11.313-90.5 90.5zm79.187-56.562l11.312 11.313-45.25 45.25-11.312-11.313 45.25-45.25z"/></symbol><symbol viewBox="0 0 36.289 36.289" id="thumb" xmlns="http://www.w3.org/2000/svg"><path d="M32.854 17.724c-1.304-1.255-3.146-1.399-4.419-1.399-.654 0-1.287.045-1.884.089a.864.864 0 0 1-.214-.053c-.125-.038-.275-.084-.445-.093-.606-.131-1.078-.258-1.52-.607-.902-.803-1.693-1.804-2.459-2.771l-.55-.688c-1.002-1.211-2.23-2.817-2.843-4.544-.323-.863-.455-1.777-.409-2.882.006-.211.02-.414.03-.612.046-.803.09-1.561-.172-2.341C17.599.664 16.687 0 15.466 0c-.822 0-1.685.312-2.341.833-1.645 1.144-2.702 3.312-2.832 5.806-.067 1.398.359 2.6.771 3.761.359 1.013.699 1.967.695 3-.004 1.566-1.357 2.002-3.271 2.446-.209.049-.416.097-.578.139-.219.04-.442.077-.668.115-1.436.238-3.062.511-4.24 1.633-.889.883-1.312 2.34-1.077 3.713.169.99.657 1.805 1.362 2.289-.444 1.684.381 3.646 1.981 4.693-.153.762-.01 1.623.414 2.428.476.9 1.229 1.604 2.071 1.939.002 1.543 1.055 2.887 2.713 3.355.461.094.961.139 1.529.139.84 0 1.68-.098 2.492-.189l.854-.096c.479-.098.979-.16 1.482-.225 1.037-.133 2.106-.27 3.075-.688.785-.35 1.479-.855 2.146-1.342.218-.158.432-.314.652-.469.216-.154.435-.357.657-.568.386-.363.783-.738 1.168-.812.343-.066.669-.102.985-.135.354-.039.695-.076 1.031-.146h.166c.354 0 .743.021 1.147.047.459.027.937.057 1.41.057 1.165 0 2.625-.148 3.566-1.307 1.387-1.646 1.586-4.154 1.596-6.617v-.107c.023-1.807.038-4.54-1.568-5.968zm-5.277 9.893c-.36 1.303-1.062 1.84-2.548 1.977-.461 0-1.028 0-1.562.328-.566.156-1.021.586-1.428.967-.158.15-.314.299-.459.412-.197.143-.397.295-.603.449-.615.467-1.254.949-1.824 1.229-.347.088-.738.174-1.132.264l-.76.172c-1.593.287-3.244.438-4.798.576-.522 0-1.062 0-1.604-.145-.306-.039-.531-.178-.673-.414-.196-.324-.214-.807-.056-1.229a.898.898 0 0 0-.064-.865c-.256-.396-.771-.568-1.166-.568h-.052l-.051.01a.545.545 0 0 1-.137.016c-.323 0-.655-.27-.889-.717-.294-.568-.334-1.256-.121-1.561.246-.289.286-.709.107-1.096-.158-.34-.445-.562-.766-.604-.754-.256-1.242-.729-1.451-1.395-.154-.562-.113-1.205.146-1.514.247-.41.304-.889.153-1.271-.125-.314-.383-.543-.77-.652-.718-.131-.933-.713-.988-1.186-.117-.867.548-1.527 1.174-1.84.959-.537 2.133-.729 3.27-.915.609-.1 1.238-.201 1.834-.355 2.037-.529 3.5-2.122 3.641-3.964.099-1.354-.329-2.599-.741-3.798-.351-1.018-.681-1.978-.709-2.99-.029-.977.254-2.055.797-3.085.52-.812 1.395-1.686 2.09-1.686.035 0 .071.003.1.008.429.062.416.877.369 1.636l-.011.188c-.063 1.247-.09 2.297.193 3.513.399 1.65 1.338 2.989 2.243 4.284.197.282.396.565.596.86.852 1.227 1.936 2.562 3.115 3.842.222.269.467.566.764.771.08.146.187.222.29.259.733.563 1.517.89 2.512 1.052.721.137 1.341.251 1.654.778.627 1.111.646 2.641.659 3.863l.003.291c.021 1.299.009 2.795-.347 4.105zm4.6-4.301l-.002.48c.009 1.885-.109 3.809-1.029 5.143-.309.473-.927.508-1.768.508h-.09c.475-.965.659-2.088.773-3.107.197-1.855.177-3.67-.062-5.395-.103-.756-.261-1.582-.621-2.315.682.075 1.382.263 1.916.718.912.759.894 2.691.883 3.968z"/></symbol><symbol viewBox="0 0 240.835 240.835" id="up" xmlns="http://www.w3.org/2000/svg"><path d="M129.007 57.819c-4.68-4.68-12.499-4.68-17.191 0L3.555 165.803c-4.74 4.74-4.74 12.427 0 17.155 4.74 4.74 12.439 4.74 17.179 0l99.683-99.406 99.671 99.418c4.752 4.74 12.439 4.74 17.191 0 4.74-4.74 4.74-12.427 0-17.155L129.007 57.819z"/></symbol><symbol viewBox="0 0 248.349 248.349" id="user" xmlns="http://www.w3.org/2000/svg"><path d="M9.954 241.305h228.441c3.051 0 5.896-1.246 7.805-3.416 1.659-1.882 2.393-4.27 2.078-6.723-5.357-41.734-31.019-76.511-66.15-95.053-14.849 14.849-35.348 24.046-57.953 24.046s-43.105-9.197-57.953-24.046C31.09 154.65 5.423 189.432.071 231.166c-.315 2.453.424 4.846 2.078 6.723 1.909 2.17 4.754 3.416 7.805 3.416z"/><path d="M72.699 127.09a72.826 72.826 0 0 0 4.166 4.019c12.586 11.259 29.137 18.166 47.309 18.166s34.723-6.913 47.309-18.166a72.838 72.838 0 0 0 4.166-4.019c1.327-1.398 2.622-2.828 3.84-4.329 9.861-12.211 15.8-27.717 15.8-44.6 0-39.216-31.906-71.116-71.116-71.116S53.059 38.95 53.059 78.16c0 16.883 5.939 32.39 15.8 44.6 1.213 1.502 2.507 2.927 3.84 4.33z"/></symbol><symbol viewBox="0 0 311.541 311.541" id="user1" xmlns="http://www.w3.org/2000/svg"><path d="M155.771 26.331C69.74 26.331 0 96.071 0 182.102c0 37.488 13.25 71.883 35.314 98.761 3.404-27.256 30.627-50.308 68.8-61.225 13.946 12.994 31.96 20.878 51.656 20.878 19.233 0 36.894-7.487 50.698-19.936 38.503 11.871 65.141 36.27 66.017 64.63 24.284-27.472 39.056-63.555 39.056-103.108 0-86.031-69.74-155.771-155.77-155.771zm0 195.738c-9.944 0-19.314-2.732-27.634-7.464-20.05-11.409-33.855-34.756-33.855-61.711 0-38.143 27.583-69.176 61.489-69.176 33.909 0 61.489 31.033 61.489 69.176 0 27.369-14.237 51.004-34.786 62.215-8.095 4.414-17.128 6.96-26.703 6.96z"/></symbol><symbol viewBox="0 0 97.75 97.75" id="yt" xmlns="http://www.w3.org/2000/svg"><path d="M25.676 52.482h3.875v20.973h3.666V52.482h3.947v-3.435H25.676zm30.998 2.564c-1.212 0-2.343.662-3.406 1.972v-7.972h-3.295v24.409h3.295v-1.762c1.103 1.361 2.233 2.013 3.406 2.013 1.311 0 2.193-.69 2.633-2.044.221-.771.334-1.982.334-3.665v-7.242c0-1.722-.113-2.924-.334-3.655-.439-1.364-1.323-2.054-2.633-2.054zm-.33 13.209c0 1.644-.482 2.454-1.434 2.454-.541 0-1.092-.259-1.643-.811V58.814c.551-.545 1.102-.803 1.643-.803.951 0 1.434.842 1.434 2.482v7.762zm-12.52.912c-.731 1.033-1.422 1.542-2.084 1.542-.44 0-.691-.259-.771-.771-.03-.106-.03-.508-.03-1.28v-13.39h-3.296v14.379c0 1.285.111 2.153.291 2.705.331.922 1.063 1.354 2.123 1.354 1.213 0 2.457-.732 3.767-2.234v1.984h3.298V55.268h-3.298v13.899zm2.829-30.701c1.073 0 1.588-.851 1.588-2.551v-7.731c0-1.701-.515-2.548-1.588-2.548-1.074 0-1.59.848-1.59 2.548v7.731c0 1.701.516 2.551 1.59 2.551z"/><path d="M48.875 0C21.882 0 0 21.882 0 48.875S21.882 97.75 48.875 97.75 97.75 75.868 97.75 48.875 75.868 0 48.875 0zm5.436 22.86h3.321v13.532c0 .781 0 1.186.04 1.295.073.516.335.78.781.78.666 0 1.365-.516 2.104-1.559V22.86h3.33v18.379h-3.33v-2.004c-1.326 1.52-2.59 2.257-3.805 2.257-1.072 0-1.812-.435-2.146-1.365-.184-.557-.295-1.436-.295-2.733V22.86zm-12.578 5.993c0-1.965.334-3.401 1.042-4.33.921-1.257 2.218-1.885 3.878-1.885 1.668 0 2.964.628 3.885 1.885.698.928 1.032 2.365 1.032 4.33v6.436c0 1.954-.334 3.403-1.032 4.322-.921 1.254-2.217 1.881-3.885 1.881-1.66 0-2.957-.627-3.878-1.881-.708-.919-1.042-2.369-1.042-4.322v-6.436zm-8.906-12.277l2.622 9.685 2.519-9.685h3.735L37.26 31.251v9.989h-3.692v-9.989c-.335-1.77-1.074-4.363-2.259-7.803-.778-2.289-1.589-4.585-2.367-6.872h3.885zm42.359 58.485c-.668 2.899-3.039 5.039-5.894 5.358-6.763.755-13.604.759-20.42.755-6.813.004-13.658 0-20.419-.755-2.855-.319-5.227-2.458-5.893-5.358-.951-4.129-.951-8.638-.951-12.89s.012-8.76.962-12.89c.667-2.9 3.037-5.04 5.892-5.358 6.762-.755 13.606-.759 20.421-.755 6.813-.004 13.657 0 20.419.755 2.855.319 5.227 2.458 5.896 5.358.948 4.13.942 8.638.942 12.89s-.004 8.761-.955 12.89z"/><path d="M67.17 55.046c-1.686 0-2.995.619-3.947 1.864-.699.92-1.018 2.342-1.018 4.285v6.371c0 1.933.357 3.365 1.059 4.276.951 1.242 2.264 1.863 3.988 1.863 1.721 0 3.072-.651 3.984-1.972.4-.584.66-1.245.77-1.975a25.5 25.5 0 0 0 .07-2.124v-.479h-3.361c0 1.32-.043 2.053-.072 2.232-.188.881-.662 1.321-1.473 1.321-1.132 0-1.686-.84-1.686-2.522V64.96h6.592v-3.767c0-1.943-.329-3.365-1.02-4.285-.921-1.242-2.232-1.862-3.886-1.862zm1.612 7.172h-3.296v-1.683c0-1.682.553-2.523 1.654-2.523 1.09 0 1.642.842 1.642 2.523v1.683z"/></symbol></svg>